<svg width="14" height="14" viewBox="0 0 14 14" fill="none" xmlns="http://www.w3.org/2000/svg">
<g clip-path="url(#clip0_0_118)">
<path fill-rule="evenodd" clip-rule="evenodd" d="M7.78084 2.00532C7.96199 1.82198 8.25746 1.82019 8.4408 2.00134L12.928 6.43467C13.0167 6.52234 13.0667 6.64189 13.0667 6.76664C13.0667 6.89138 13.0167 7.01093 12.928 7.09861L8.4408 11.5319C8.25746 11.7131 7.96199 11.7113 7.78084 11.528C7.5997 11.3446 7.60149 11.0491 7.78483 10.868L11.4637 7.2333H0.933326C0.675593 7.2333 0.46666 7.02437 0.46666 6.76664C0.46666 6.5089 0.675593 6.29997 0.933326 6.29997H11.4637L7.78483 2.66527C7.60149 2.48413 7.5997 2.18866 7.78084 2.00532Z" fill="#32ADE6"/>
</g>
<defs>
<clipPath id="clip0_0_118">
<rect width="14" height="14" fill="white"/>
</clipPath>
</defs>
</svg>
