<svg width="14" height="14" viewBox="0 0 14 14" fill="none" xmlns="http://www.w3.org/2000/svg">
<path fill-rule="evenodd" clip-rule="evenodd" d="M7.78086 2.00532C7.962 1.82198 8.25747 1.82019 8.44081 2.00134L12.928 6.43467C13.0167 6.52234 13.0667 6.64189 13.0667 6.76664C13.0667 6.89138 13.0167 7.01093 12.928 7.09861L8.44081 11.5319C8.25747 11.7131 7.962 11.7113 7.78086 11.528C7.59972 11.3446 7.6015 11.0491 7.78484 10.868L11.4637 7.2333H0.933341C0.675609 7.2333 0.466675 7.02437 0.466675 6.76664C0.466675 6.5089 0.675609 6.29997 0.933341 6.29997H11.4637L7.78484 2.66527C7.6015 2.48413 7.59972 2.18866 7.78086 2.00532Z" fill="#32ADE6"/>
</svg>
